<?xml version="1.0" standalone="no"?>
<!DOCTYPE svg PUBLIC "-//W3C//DTD SVG 20010904//EN"
 "http://www.w3.org/TR/2001/REC-SVG-20010904/DTD/svg10.dtd">
<svg version="1.0" xmlns="http://www.w3.org/2000/svg"
 width="421.000000pt" height="421.000000pt" viewBox="0 0 421.000000 421.000000"
 preserveAspectRatio="xMidYMid meet">
<metadata>
Created by potrace 1.14, written by Peter Selinger 2001-2017
</metadata>
<g transform="translate(0.000000,421.000000) scale(0.100000,-0.100000)"
fill="#000000" stroke="none">
<path d="M1661 3996 c-11 -13 -23 -54 -24 -83 0 -7 -7 -13 -15 -13 -11 0 -12
-9 -7 -42 6 -35 5 -41 -6 -30 -34 32 -53 -4 -23 -46 8 -12 11 -22 5 -22 -6 0
-6 -11 -1 -30 8 -28 7 -30 -11 -25 -17 6 -19 3 -13 -22 3 -15 15 -43 25 -60
10 -18 14 -33 9 -33 -5 0 -12 5 -15 10 -13 21 -27 10 -20 -17 9 -36 43 -83 60
-83 24 0 23 -25 -2 -35 l-23 -10 36 -28 c19 -16 42 -30 50 -31 27 -4 18 -21
-24 -44 -52 -29 -48 -53 8 -54 3 -1 18 2 33 6 l28 7 -17 -33 c-23 -44 -33 -93
-23 -109 6 -11 11 -11 21 -1 6 6 16 12 20 12 16 0 7 -26 -22 -59 -34 -40 -30
-65 10 -57 26 5 28 3 26 -27 -1 -29 2 -32 32 -37 18 -3 33 -9 32 -15 0 -12
-21 -37 -46 -56 -54 -39 -78 -113 -33 -102 27 7 24 -6 -11 -42 -49 -51 -59
-118 -15 -101 24 9 17 -9 -20 -54 -35 -42 -45 -79 -22 -81 6 -1 24 -1 39 0 21
1 25 -3 21 -18 -4 -15 5 -25 37 -41 23 -12 44 -19 48 -16 3 3 6 26 7 51 1 41
9 64 19 54 2 -2 7 -31 10 -64 6 -48 13 -65 36 -87 16 -16 31 -28 34 -28 2 0
19 21 38 48 19 26 51 56 70 66 33 18 40 19 80 5 41 -13 93 -57 125 -106 l15
-22 56 29 c76 38 111 71 127 117 13 37 43 54 37 21 -1 -10 12 -23 41 -37 36
-17 45 -28 56 -65 7 -24 18 -43 24 -42 14 3 66 24 77 31 17 11 52 -32 54 -66
4 -58 9 -61 64 -44 20 7 22 12 16 44 -5 30 -40 126 -50 140 -13 17 -121 1
-151 -22 -15 -11 -27 12 -21 40 2 12 11 17 26 15 39 -6 25 42 -30 102 -24 26
-23 39 2 31 45 -14 32 54 -20 103 -35 34 -37 42 -10 42 38 0 23 41 -34 95 -58
54 -61 71 -11 77 26 3 30 7 30 35 0 26 3 32 16 28 9 -3 23 -3 32 1 19 7 11 29
-31 79 -26 31 -17 44 18 25 40 -21 38 23 -4 122 -6 14 -3 15 27 9 44 -10 76 9
53 31 -8 8 -28 21 -45 28 -38 15 -39 22 -2 38 56 25 93 72 56 72 -22 0 -19 7
19 46 33 34 53 80 41 92 -3 3 -11 0 -17 -6 -25 -25 -26 -10 -3 34 33 63 32 97
-3 62 -9 -9 -10 -4 -3 19 5 18 7 34 4 36 -3 3 1 21 8 41 15 41 9 52 -20 36
-21 -10 -21 -9 -15 31 6 37 5 41 -9 36 -13 -5 -17 -1 -17 19 0 33 -26 94 -41
94 -6 0 -27 -16 -45 -36 -22 -23 -34 -30 -34 -20 0 33 -19 14 -50 -49 -17 -36
-36 -65 -41 -65 -4 0 -6 7 -3 15 4 9 0 15 -9 15 -8 0 -26 -26 -41 -60 -30 -65
-42 -74 -52 -34 -5 18 -11 23 -23 18 -9 -3 -38 -15 -65 -26 -27 -10 -58 -30
-69 -44 l-20 -25 -26 24 c-14 13 -42 30 -61 37 -19 8 -46 20 -60 27 -24 12
-25 11 -33 -17 -4 -17 -10 -30 -12 -30 -3 0 -18 26 -34 58 -40 78 -71 103 -62
50 0 -5 -2 -8 -7 -8 -4 0 -20 29 -36 65 -17 39 -34 65 -43 65 -13 0 -13 -3 -3
-15 10 -12 10 -15 -4 -15 -9 0 -16 4 -16 10 0 10 -51 60 -61 60 -4 0 -12 -6
-18 -14z m106 -216 c32 -32 46 -53 40 -59 -16 -16 -97 56 -97 85 0 13 2 24 4
24 2 0 26 -22 53 -50z m793 39 c0 -21 -20 -48 -59 -78 -57 -46 -61 -20 -5 39
46 49 64 60 64 39z m-864 -103 c8 -8 14 -21 14 -28 0 -7 11 -26 25 -42 13 -16
22 -33 19 -37 -21 -35 -84 42 -84 102 0 23 6 24 26 5z m901 -14 c-9 -54 -57
-126 -71 -104 -8 14 -2 35 28 85 31 53 49 61 43 19z m-584 -16 c39 -16 69 -44
61 -57 -3 -5 -18 0 -34 11 -15 11 -32 20 -37 20 -26 0 -83 22 -78 31 9 13 50
11 88 -5z m331 5 c7 -11 -17 -21 -47 -21 -12 0 -40 -11 -62 -25 -48 -29 -54
-30 -51 -7 5 36 143 82 160 53z m-403 -124 c35 -7 69 -29 69 -44 0 -16 -11
-16 -47 -2 -38 16 -105 19 -120 7 -7 -6 -13 -7 -13 -3 0 4 -16 -2 -36 -14 -40
-24 -54 -26 -54 -8 0 16 65 57 98 63 15 3 28 7 30 8 3 4 33 0 73 -7z m480 0
c57 -11 115 -55 96 -73 -3 -3 -27 6 -54 19 -54 27 -123 28 -174 3 -22 -11 -29
-12 -29 -2 0 18 33 46 60 51 12 2 24 6 27 8 4 4 31 2 74 -6z m-461 -198 c9
-16 8 -24 -5 -39 -20 -22 -52 -16 -60 12 -14 42 44 66 65 27z m398 9 c19 -19
14 -48 -10 -57 -28 -11 -48 3 -48 34 0 32 35 46 58 23z m-98 -98 c64 -21 87
-28 103 -29 5 -1 5 -6 1 -12 -3 -6 7 -25 24 -42 16 -18 33 -42 36 -54 12 -40
-12 -34 -45 12 -18 25 -38 45 -46 45 -7 0 -13 3 -13 8 0 4 -24 18 -52 32 -77
35 -202 34 -274 -2 -48 -25 -124 -91 -124 -108 0 -4 -7 -10 -15 -14 -28 -10
-16 33 20 73 19 21 35 43 35 48 0 10 91 47 135 55 64 13 154 7 215 -12z m-66
-86 c9 -3 16 -15 16 -26 0 -10 -4 -17 -9 -13 -19 11 -52 -38 -49 -75 3 -30 8
-36 43 -48 85 -30 95 -35 124 -63 31 -29 49 -74 36 -87 -4 -4 -15 4 -24 18
-29 44 -61 68 -117 86 -29 9 -59 23 -65 30 -9 11 -16 10 -40 -7 -16 -11 -38
-21 -49 -22 -11 -1 -20 -4 -20 -7 0 -4 -6 -7 -13 -7 -22 0 -68 -35 -83 -64
-17 -34 -34 -38 -34 -8 0 36 41 80 97 105 29 13 60 24 67 24 23 0 41 31 37 63
-3 32 -15 49 -43 60 -21 7 -24 33 -5 40 18 8 113 8 131 1z m-339 -446 c-9 -40
-13 -48 -26 -48 -18 0 -21 30 -5 55 24 36 39 32 31 -7z m593 0 c10 -35 7 -48
-9 -48 -11 0 -38 62 -32 73 10 18 33 4 41 -25z m-478 -9 c-2 -8 -5 -36 -5 -64
0 -27 3 -56 5 -64 3 -9 -2 -16 -12 -19 -30 -6 -43 101 -18 149 12 22 38 20 30
-2z m363 -11 c23 -54 3 -153 -28 -142 -9 4 -10 16 -2 49 7 31 7 56 0 79 -17
55 9 66 30 14z m-240 -22 c-10 -47 -12 -49 -28 -36 -10 8 -13 21 -8 39 11 48
46 46 36 -3z m120 6 c6 -32 -2 -54 -17 -49 -12 4 -25 55 -18 74 6 20 30 3 35
-25z"/>
<path d="M2103 3828 c-22 -29 -22 -37 3 -63 l25 -27 25 23 c29 27 31 55 5 69
-26 13 -46 13 -58 -2z"/>
<path d="M1521 2516 c-21 -27 -39 -75 -45 -121 -4 -27 -9 -62 -12 -76 -4 -20
1 -30 19 -42 23 -15 26 -15 42 3 11 12 20 41 22 72 5 66 21 98 46 98 42 0 182
-70 215 -108 l32 -37 25 30 c13 17 24 35 25 42 0 14 -40 39 -160 99 -98 48
-188 66 -209 40z"/>
<path d="M2031 2477 c-37 -20 -62 -48 -159 -179 -15 -21 -32 -37 -39 -38 -6 0
-25 12 -42 26 -43 36 -90 48 -112 28 -9 -8 -20 -26 -23 -40 -5 -19 -10 -23
-24 -16 -55 29 -222 -55 -274 -137 -17 -27 -17 -28 11 -48 25 -19 56 -18 50 2
-4 15 82 93 109 98 15 3 28 4 29 3 1 -1 -20 -26 -47 -56 -28 -30 -50 -60 -50
-66 0 -6 11 -14 25 -16 14 -3 25 -2 25 1 0 3 23 21 50 40 34 24 50 41 50 56 0
33 40 87 81 108 l35 18 40 -38 c21 -21 53 -45 71 -54 20 -11 33 -27 38 -47 6
-30 23 -54 58 -81 15 -12 20 -11 37 9 21 24 26 46 12 52 -13 5 -82 100 -82
113 0 6 9 21 20 33 11 12 20 25 20 31 0 5 5 11 11 13 6 2 24 26 39 53 16 28
33 51 39 51 6 1 15 2 21 3 21 3 48 85 31 95 -5 3 -27 -4 -50 -17z"/>
<path d="M2412 2462 c-23 -21 -69 -51 -102 -67 -58 -28 -60 -30 -54 -60 3 -16
8 -31 9 -33 2 -2 22 6 45 18 24 12 58 23 77 24 20 1 41 9 48 19 15 21 9 53
-12 61 -12 5 -13 9 -3 21 16 20 24 14 49 -40 15 -31 21 -64 21 -109 0 -74 10
-79 60 -31 23 22 27 32 20 46 -6 10 -10 27 -10 38 0 30 -30 113 -48 134 -24
27 -54 20 -100 -21z"/>
<path d="M2133 2432 c-1 -20 4 -58 13 -83 16 -51 23 -81 26 -120 2 -26 3 -26
38 -14 41 15 43 34 16 127 -14 48 -67 128 -85 128 -3 0 -7 -17 -8 -38z"/>
<path d="M1616 2383 c-3 -3 -6 -15 -6 -25 0 -22 35 -25 44 -3 5 15 -26 39 -38
28z"/>
<path d="M2603 2373 c-15 -5 -17 -29 -4 -37 12 -8 52 7 53 18 0 9 -23 26 -32
25 -3 0 -11 -3 -17 -6z"/>
<path d="M2074 2335 c-16 -13 -17 -16 -4 -25 21 -14 30 -12 37 6 9 24 -10 36
-33 19z"/>
<path d="M2781 2311 c-12 -8 -12 -14 -1 -40 12 -30 15 -31 59 -26 39 5 57 0
123 -34 l77 -38 16 24 c22 33 9 48 -78 88 -70 33 -166 45 -196 26z"/>
<path d="M2660 2303 c0 -4 9 -16 19 -27 11 -12 22 -34 25 -51 11 -59 27 -83
76 -108 42 -22 52 -24 89 -14 22 6 41 17 41 24 0 24 -45 64 -77 68 -43 5 -50
10 -73 55 -11 22 -29 44 -39 50 -22 11 -61 14 -61 3z"/>
<path d="M1274 2280 c-51 -18 -94 -41 -94 -50 1 -3 9 -16 20 -28 l20 -24 42
20 c65 31 92 35 124 19 27 -14 31 -13 58 13 l29 28 -34 18 c-45 24 -103 25
-165 4z"/>
<path d="M2625 2288 c-11 -6 -38 -26 -59 -45 -22 -18 -45 -33 -53 -33 -25 0
-121 -50 -119 -62 1 -7 7 -23 14 -34 l12 -22 72 35 c40 19 83 44 95 55 14 13
28 18 42 13 30 -9 60 10 54 36 -3 11 -14 25 -23 32 -10 6 -16 17 -13 24 6 16
4 16 -22 1z"/>
<path d="M1002 2244 c-49 -43 -88 -106 -77 -124 3 -5 -2 -15 -10 -23 -8 -9
-15 -18 -15 -22 0 -4 -7 -13 -15 -21 -8 -8 -17 -31 -21 -52 -3 -20 -17 -53
-30 -72 -25 -38 -44 -83 -44 -105 0 -9 9 -12 28 -10 15 2 33 4 40 4 6 1 12 8
12 16 0 8 13 29 29 47 17 21 28 45 29 65 1 35 22 82 46 102 9 8 16 26 16 41 0
15 11 43 24 62 13 19 26 51 30 70 4 20 14 39 22 42 13 5 15 0 11 -29 -4 -32 0
-41 44 -84 27 -27 49 -53 49 -57 0 -5 14 -19 32 -31 28 -20 33 -20 53 -7 21
14 25 13 54 -11 17 -15 38 -39 47 -55 10 -15 32 -35 50 -44 33 -15 34 -15 48
13 l15 29 -99 56 c-54 31 -101 56 -105 56 -11 0 -50 44 -98 113 -26 37 -51 67
-55 68 -4 0 -18 3 -32 5 -19 3 -38 -7 -78 -42z"/>
<path d="M3115 2242 c-19 -26 -38 -51 -43 -57 -4 -5 -15 -24 -24 -41 -15 -31
-15 -32 9 -43 23 -10 29 -8 60 24 19 19 38 35 42 35 15 0 28 45 23 80 l-5 35
22 -19 c11 -11 21 -28 21 -40 0 -11 12 -37 26 -57 14 -20 26 -51 28 -68 1 -17
13 -43 25 -57 13 -15 29 -48 36 -73 7 -25 26 -68 41 -96 25 -43 33 -50 63 -52
33 -1 33 -1 28 34 -4 20 -19 54 -34 77 -28 40 -30 45 -32 77 0 8 -14 35 -30
60 -16 24 -33 58 -37 74 -16 70 -90 142 -153 150 -27 3 -35 -2 -66 -43z"/>
<path d="M2368 2268 c-8 -21 2 -38 22 -38 19 0 30 17 23 38 -3 6 -13 12 -23
12 -10 0 -20 -6 -22 -12z"/>
<path d="M1988 2234 c-3 -3 -4 -14 -1 -25 6 -22 38 -26 46 -5 9 23 -28 48 -45
30z"/>
<path d="M2274 2208 c-3 -4 -13 -8 -23 -8 -30 0 -175 -77 -213 -113 -40 -38
-73 -85 -65 -93 3 -4 33 12 65 33 33 22 81 45 107 52 29 7 60 25 83 47 44 42
47 40 91 -73 18 -45 47 -103 64 -130 27 -41 37 -49 62 -48 26 1 30 5 27 26 -1
13 -13 40 -27 59 -13 19 -40 78 -60 130 -20 52 -43 102 -51 112 -16 17 -51 20
-60 6z"/>
<path d="M1292 2177 c-14 -17 2 -42 22 -34 20 8 20 21 2 36 -10 8 -16 8 -24
-2z"/>
<path d="M2934 2179 c-9 -15 18 -40 34 -30 15 9 5 41 -13 41 -8 0 -17 -5 -21
-11z"/>
<path d="M1701 2166 c-8 -10 -8 -16 2 -24 17 -14 42 2 34 22 -8 20 -21 20 -36
2z"/>
<path d="M2654 2119 c-3 -6 0 -17 7 -25 18 -17 44 -2 36 20 -7 18 -33 21 -43
5z"/>
<path d="M1036 2093 c-6 -15 8 -32 26 -33 12 0 18 18 12 34 -8 21 -30 20 -38
-1z"/>
<path d="M2548 2105 c-1 -1 -19 -5 -38 -8 -20 -2 -48 -11 -62 -18 -21 -11 -24
-18 -17 -36 7 -19 14 -21 60 -18 29 2 62 -1 75 -5 18 -7 25 -4 38 15 9 13 13
31 10 39 -5 13 -58 39 -66 31z"/>
<path d="M3187 2089 c-3 -12 0 -22 8 -25 20 -8 35 4 35 27 0 26 -36 25 -43 -2z"/>
<path d="M1116 2068 c-7 -13 -17 -40 -20 -61 -4 -21 -16 -53 -27 -72 -11 -19
-22 -48 -24 -65 -4 -31 -4 -31 38 -28 34 2 41 6 39 21 -2 10 8 37 21 60 47 81
21 221 -27 145z"/>
<path d="M1614 2069 c-81 -31 -148 -109 -156 -184 -2 -23 1 -29 12 -26 8 2 21
4 28 5 6 1 25 23 41 49 36 55 91 94 147 103 59 9 146 -19 194 -62 l39 -35 17
26 c16 25 16 27 -3 53 -11 15 -45 40 -76 56 -73 37 -167 43 -243 15z"/>
<path d="M2880 2079 c-19 -5 -40 -11 -46 -12 -18 -4 -61 -35 -84 -59 -43 -45
-80 -137 -57 -139 92 -5 89 -6 82 27 -5 28 -1 36 36 68 63 53 166 69 233 34
33 -17 84 -77 98 -114 20 -57 95 -63 79 -7 -36 126 -124 201 -239 207 -37 2
-83 0 -102 -5z"/>
<path d="M2254 2059 c-3 -6 0 -18 9 -26 18 -18 37 -9 37 18 0 21 -34 27 -46 8z"/>
<path d="M2643 2038 c-15 -7 -24 -24 -29 -52 -3 -22 -13 -54 -21 -70 -18 -34
-6 -51 30 -42 18 4 31 22 51 66 40 88 27 127 -31 98z"/>
<path d="M1256 2023 c-8 -19 19 -69 39 -77 24 -9 53 -7 60 4 8 12 -60 87 -79
87 -8 0 -18 -7 -20 -14z"/>
<path d="M2059 2008 c-18 -15 -39 -28 -46 -28 -13 0 -86 -83 -85 -96 2 -14 34
-13 61 1 15 7 41 15 59 18 58 9 69 28 44 74 -19 34 2 36 33 3 34 -36 162 -100
199 -100 l26 0 -22 34 c-12 18 -38 42 -58 52 -19 10 -53 30 -74 44 -53 34 -95
33 -137 -2z"/>
<path d="M3242 1981 c-18 -11 -11 -45 9 -49 9 -2 19 5 23 14 8 22 -14 46 -32
35z"/>
<path d="M986 1963 c-7 -16 8 -33 30 -33 14 0 23 20 17 38 -7 18 -40 15 -47
-5z"/>
<path d="M1696 1963 c-3 -4 -6 -15 -6 -25 0 -24 33 -21 38 3 3 17 -21 33 -32
22z"/>
<path d="M2495 1960 c-7 -11 12 -40 25 -40 15 0 21 33 8 42 -17 11 -26 10 -33
-2z"/>
<path d="M2946 1955 c-17 -18 -13 -35 8 -35 24 0 38 26 22 39 -11 9 -17 8 -30
-4z"/>
<path d="M1180 1908 c-22 -24 -26 -54 -8 -60 6 -2 24 -2 40 0 24 4 28 9 28 37
0 21 -6 35 -16 39 -22 8 -21 9 -44 -16z"/>
<path d="M1795 1906 c-32 -23 -8 -37 48 -27 14 2 7 20 -12 30 -13 7 -23 6 -36
-3z"/>
<path d="M1586 1895 c-3 -8 3 -19 13 -24 21 -12 31 -5 31 21 0 22 -35 25 -44
3z"/>
<path d="M2846 1895 c-7 -19 27 -38 42 -23 6 6 8 17 5 24 -7 19 -39 18 -47 -1z"/>
<path d="M1347 1893 c-16 -15 -6 -33 18 -33 18 0 25 5 25 20 0 20 -28 28 -43
13z"/>
<path d="M3044 1885 c-7 -18 3 -35 21 -35 21 0 28 19 15 35 -16 19 -29 19 -36
0z"/>
<path d="M941 1862 c-12 -23 6 -36 30 -21 12 7 11 11 -3 25 -15 15 -17 15 -27
-4z"/>
<path d="M3286 1865 c-9 -24 -8 -25 15 -25 14 0 19 5 17 17 -4 23 -24 27 -32
8z"/>
<path d="M1977 1834 c-1 -1 -94 -5 -207 -9 -344 -12 -451 -17 -650 -30 -160
-10 -213 -14 -260 -19 -25 -3 -81 -8 -125 -12 -134 -11 -170 -20 -187 -47 -26
-41 -18 -52 42 -53 30 0 63 3 72 8 18 9 86 21 106 19 6 0 20 -1 30 -1 9 0 26
0 37 -1 44 -4 234 -1 295 4 36 3 117 8 180 12 63 3 147 8 185 10 348 22 1083
22 1335 0 25 -2 92 -6 150 -10 58 -3 134 -8 170 -11 70 -6 239 -8 335 -4 62 3
129 -5 149 -18 6 -4 37 -7 69 -7 63 -1 73 13 40 54 -22 26 -48 32 -218 46 -38
3 -88 8 -110 10 -22 3 -74 7 -115 10 -89 6 -198 14 -295 21 -200 15 -1017 37
-1028 28z"/>
<path d="M679 1639 c-224 -25 -368 -249 -290 -451 38 -97 140 -184 249 -209
20 -5 110 -6 199 -2 l162 6 24 61 23 61 128 0 128 0 21 -62 21 -63 128 0 128
0 1 28 c2 65 0 123 -6 132 -3 6 -3 10 2 10 4 0 7 21 5 47 -4 60 -4 59 0 110 2
24 0 44 -4 45 -4 2 -4 9 1 16 5 9 32 -24 83 -105 42 -65 88 -138 104 -162 16
-24 39 -60 50 -80 22 -36 23 -36 97 -39 l76 -3 0 228 c0 125 0 243 1 261 l0
32 68 0 68 0 0 -257 0 -258 72 -3 72 -3 1 63 c0 35 0 152 0 261 l-1 197 68 0
68 0 0 -257 -1 -258 73 -3 c39 -2 72 1 73 5 1 4 2 151 3 326 l1 317 -356 0
-355 0 0 -200 c1 -110 -1 -200 -4 -200 -3 0 -32 43 -65 96 -33 52 -84 131
-112 175 -29 45 -53 84 -53 88 0 4 -8 16 -19 25 -15 13 -34 16 -87 14 l-69 -3
0 -253 c0 -138 -3 -252 -7 -252 -5 0 -8 5 -8 11 0 6 -7 27 -16 47 -9 21 -20
46 -25 57 -4 11 -22 56 -39 100 -17 44 -35 89 -40 100 -5 11 -19 45 -30 75
-47 125 -42 120 -118 120 -64 0 -68 -1 -79 -27 -6 -16 -51 -127 -99 -248 -48
-121 -91 -224 -96 -230 -6 -7 -14 -4 -22 7 -12 17 -15 17 -47 1 -43 -22 -153
-22 -196 0 -43 23 -90 80 -102 124 -42 157 123 287 286 225 l51 -19 31 61 30
61 -37 19 c-52 27 -147 43 -213 35z m537 -312 l32 -87 -74 0 c-41 0 -74 1 -74
3 0 3 35 93 51 132 7 17 11 34 10 38 -1 5 4 7 10 5 7 -2 27 -43 45 -91z"/>
<path d="M2598 1628 c0 -2 -2 -148 -3 -325 l-2 -323 73 0 74 0 2 202 3 201 64
-98 c35 -55 93 -146 128 -202 l65 -103 127 0 127 0 23 65 23 65 127 0 127 0
23 -65 23 -65 79 0 79 0 -21 53 c-12 28 -30 75 -41 102 -11 28 -25 64 -33 80
-7 17 -27 66 -44 110 -18 44 -36 89 -41 100 -23 54 -39 95 -60 148 l-24 57
-67 0 c-44 0 -69 -4 -72 -12 -68 -170 -140 -348 -147 -363 -6 -11 -21 -49 -34
-85 l-25 -65 -1 145 c-1 80 -1 198 0 263 l1 118 -73 -3 -73 -3 0 -198 c0 -108
-2 -197 -5 -197 -3 0 -12 12 -21 28 -9 15 -55 87 -103 160 -47 73 -86 135 -86
138 0 3 -12 21 -26 40 -26 33 -29 34 -95 34 -38 0 -70 -1 -71 -2z m902 -380
c0 -5 -31 -8 -70 -8 -38 0 -70 4 -70 9 0 9 57 158 67 175 5 7 72 -157 73 -176z"/>
<path d="M2100 918 c-108 -17 -201 -86 -249 -188 -22 -48 -26 -68 -25 -150 0
-111 21 -166 88 -235 62 -63 125 -89 221 -92 132 -3 241 57 294 161 12 26 24
46 26 44 2 -2 5 -17 8 -34 17 -108 110 -174 244 -174 87 0 141 18 188 64 57
55 66 93 68 299 l2 171 60 -3 c33 -1 61 -4 63 -5 1 -2 3 -119 3 -260 l0 -256
72 0 73 0 0 260 -1 260 50 1 c28 1 62 0 78 -1 22 -1 27 3 28 22 0 13 1 42 2
66 l2 42 -290 0 -290 0 0 -208 c1 -114 -3 -220 -7 -237 -13 -49 -40 -68 -97
-69 -43 0 -56 4 -79 27 l-27 27 -2 218 c-1 119 -2 223 -2 230 -1 8 -23 12 -74
12 l-73 0 1 -95 c1 -52 1 -95 0 -95 -1 0 -19 25 -39 54 -77 112 -189 163 -316
144z m113 -152 c118 -50 139 -253 36 -341 -78 -65 -209 -34 -250 60 -46 105
-9 244 75 281 40 17 98 18 139 0z"/>
<path d="M1025 903 c-52 -27 -103 -83 -111 -122 -13 -64 -12 -75 6 -116 22
-52 64 -87 156 -131 85 -40 110 -68 95 -107 -21 -56 -129 -53 -214 6 -34 23
-48 15 -83 -55 l-24 -47 22 -15 c70 -46 122 -60 218 -61 86 0 100 3 146 28 54
30 92 82 96 131 l2 27 20 -28 c68 -97 167 -154 281 -161 74 -5 165 14 210 44
l23 15 -31 57 c-17 31 -31 58 -32 60 -1 1 -17 -6 -36 -15 -51 -26 -155 -22
-208 7 -62 36 -95 92 -95 166 -1 51 4 67 27 101 55 80 167 112 263 75 l52 -19
28 59 c28 59 28 60 9 74 -63 46 -218 58 -311 23 -124 -47 -224 -172 -227 -287
-1 -29 -3 -52 -5 -52 -1 0 -21 13 -43 30 -23 16 -79 48 -125 70 -77 37 -84 43
-84 70 0 19 8 34 22 44 35 25 81 20 169 -18 12 -5 23 6 45 49 28 55 28 57 10
70 -56 42 -214 58 -271 28z"/>
</g>
</svg>
